<svg width="50" height="50" viewBox="0 0 50 50" fill="none" xmlns="http://www.w3.org/2000/svg">
<path d="M13.5417 43.75H42.6471C43.2562 43.75 43.7505 43.2564 43.7505 42.6473L43.75 30.2693M16.626 43.0652L43.0044 30.7647C43.5565 30.5073 43.7952 29.8509 43.5378 29.2989L38.3067 18.0816C38.0492 17.5296 37.3929 17.2898 36.8408 17.5473L25.0631 23.0398M20.5871 38.3433C19.5448 42.2331 15.5466 44.5415 11.6567 43.4992C7.76684 42.457 5.45795 38.4591 6.50023 34.5693L14.0332 6.45544C14.1909 5.86706 14.7952 5.51776 15.3835 5.67542L27.3397 8.87851C27.9281 9.03617 28.2773 9.64079 28.1196 10.2292L20.5871 38.3433ZM13.5417 36.6668H13.5458L13.5457 36.671L13.5417 36.6709V36.6668Z" stroke="black" stroke-width="2" stroke-linecap="round" stroke-linejoin="round"/>
</svg>
